<mxfile host="app.diagrams.net" modified="2023-06-14T10:21:53.345Z" agent="Mozilla/5.0 (Windows NT 10.0; Win64; x64) AppleWebKit/537.36 (KHTML, like Gecko) Chrome/114.0.0.0 Safari/537.36" etag="_6_4WiWrI8Q9_aMKX2Eo" version="21.3.8" type="github">
  <diagram name="Side-1" id="OsO0MPHAk5arLiEzXHEm">
    <mxGraphModel dx="1216" dy="520" grid="1" gridSize="10" guides="1" tooltips="1" connect="1" arrows="1" fold="1" page="1" pageScale="1" pageWidth="827" pageHeight="1169" math="0" shadow="0">
      <root>
        <mxCell id="0" />
        <mxCell id="1" parent="0" />
        <mxCell id="reVkv1FL6ccnBDt89wNR-8" style="edgeStyle=orthogonalEdgeStyle;rounded=0;orthogonalLoop=1;jettySize=auto;html=1;entryX=0.5;entryY=1;entryDx=0;entryDy=0;" parent="1" source="reVkv1FL6ccnBDt89wNR-1" target="reVkv1FL6ccnBDt89wNR-2" edge="1">
          <mxGeometry relative="1" as="geometry" />
        </mxCell>
        <mxCell id="reVkv1FL6ccnBDt89wNR-9" style="edgeStyle=orthogonalEdgeStyle;rounded=0;orthogonalLoop=1;jettySize=auto;html=1;entryX=0.5;entryY=1;entryDx=0;entryDy=0;" parent="1" source="reVkv1FL6ccnBDt89wNR-1" target="reVkv1FL6ccnBDt89wNR-3" edge="1">
          <mxGeometry relative="1" as="geometry" />
        </mxCell>
        <mxCell id="reVkv1FL6ccnBDt89wNR-1" value="" style="image;points=[];aspect=fixed;html=1;align=center;shadow=0;dashed=0;image=img/lib/allied_telesis/computer_and_terminals/Personal_Computer.svg;" parent="1" vertex="1">
          <mxGeometry x="339.6" y="523" width="45.6" height="61.800000000000004" as="geometry" />
        </mxCell>
        <mxCell id="reVkv1FL6ccnBDt89wNR-17" style="edgeStyle=orthogonalEdgeStyle;rounded=0;orthogonalLoop=1;jettySize=auto;html=1;entryX=0.5;entryY=1;entryDx=0;entryDy=0;" parent="1" source="reVkv1FL6ccnBDt89wNR-2" target="reVkv1FL6ccnBDt89wNR-4" edge="1">
          <mxGeometry relative="1" as="geometry" />
        </mxCell>
        <mxCell id="reVkv1FL6ccnBDt89wNR-2" value="" style="image;aspect=fixed;perimeter=ellipsePerimeter;html=1;align=center;shadow=0;dashed=0;spacingTop=3;image=img/lib/active_directory/database_server.svg;" parent="1" vertex="1">
          <mxGeometry x="120" y="300" width="49.2" height="60" as="geometry" />
        </mxCell>
        <mxCell id="reVkv1FL6ccnBDt89wNR-10" style="edgeStyle=orthogonalEdgeStyle;rounded=0;orthogonalLoop=1;jettySize=auto;html=1;entryX=0.5;entryY=1;entryDx=0;entryDy=0;" parent="1" source="reVkv1FL6ccnBDt89wNR-29" target="reVkv1FL6ccnBDt89wNR-4" edge="1">
          <mxGeometry relative="1" as="geometry" />
        </mxCell>
        <mxCell id="sTwo0fonugl9qo6DhqGD-8" style="edgeStyle=orthogonalEdgeStyle;rounded=0;orthogonalLoop=1;jettySize=auto;html=1;exitX=1;exitY=0.75;exitDx=0;exitDy=0;entryX=0;entryY=0.5;entryDx=0;entryDy=0;" edge="1" parent="1">
          <mxGeometry relative="1" as="geometry">
            <mxPoint x="384.03655337921464" y="331.9819320275287" as="sourcePoint" />
            <mxPoint x="588.249999999985" y="329" as="targetPoint" />
            <Array as="points">
              <mxPoint x="588" y="332" />
            </Array>
          </mxGeometry>
        </mxCell>
        <mxCell id="reVkv1FL6ccnBDt89wNR-3" value="" style="image;aspect=fixed;perimeter=ellipsePerimeter;html=1;align=center;shadow=0;dashed=0;spacingTop=3;image=img/lib/active_directory/windows_server_2.svg;" parent="1" vertex="1">
          <mxGeometry x="338.4" y="290" width="48" height="60" as="geometry" />
        </mxCell>
        <mxCell id="reVkv1FL6ccnBDt89wNR-18" style="edgeStyle=orthogonalEdgeStyle;rounded=0;orthogonalLoop=1;jettySize=auto;html=1;" parent="1" source="reVkv1FL6ccnBDt89wNR-4" target="reVkv1FL6ccnBDt89wNR-16" edge="1">
          <mxGeometry relative="1" as="geometry" />
        </mxCell>
        <mxCell id="reVkv1FL6ccnBDt89wNR-4" value="" style="image;aspect=fixed;perimeter=ellipsePerimeter;html=1;align=center;shadow=0;dashed=0;spacingTop=3;image=img/lib/active_directory/switch.svg;" parent="1" vertex="1">
          <mxGeometry x="335.6" y="130" width="40" height="40" as="geometry" />
        </mxCell>
        <mxCell id="reVkv1FL6ccnBDt89wNR-20" style="edgeStyle=orthogonalEdgeStyle;rounded=0;orthogonalLoop=1;jettySize=auto;html=1;entryX=0;entryY=0.5;entryDx=0;entryDy=0;" parent="1" source="reVkv1FL6ccnBDt89wNR-30" target="reVkv1FL6ccnBDt89wNR-19" edge="1">
          <mxGeometry relative="1" as="geometry" />
        </mxCell>
        <mxCell id="reVkv1FL6ccnBDt89wNR-16" value="" style="image;aspect=fixed;perimeter=ellipsePerimeter;html=1;align=center;shadow=0;dashed=0;spacingTop=3;image=img/lib/active_directory/router.svg;" parent="1" vertex="1">
          <mxGeometry x="331.20000000000005" y="40" width="50" height="38" as="geometry" />
        </mxCell>
        <mxCell id="reVkv1FL6ccnBDt89wNR-19" value="" style="image;aspect=fixed;perimeter=ellipsePerimeter;html=1;align=center;shadow=0;dashed=0;spacingTop=3;image=img/lib/active_directory/internet_cloud.svg;" parent="1" vertex="1">
          <mxGeometry x="520" y="37.5" width="68.25" height="43" as="geometry" />
        </mxCell>
        <mxCell id="reVkv1FL6ccnBDt89wNR-21" value="" style="shape=image;html=1;verticalAlign=top;verticalLabelPosition=bottom;labelBackgroundColor=#ffffff;imageAspect=0;aspect=fixed;image=https://cdn0.iconfinder.com/data/icons/iconsweets2/40/penguin_linux_tux.png" parent="1" vertex="1">
          <mxGeometry x="100" y="210" width="40" height="40" as="geometry" />
        </mxCell>
        <mxCell id="reVkv1FL6ccnBDt89wNR-23" value="ZBC NetvÃ¦rk" style="text;html=1;strokeColor=none;fillColor=none;align=center;verticalAlign=middle;whiteSpace=wrap;rounded=0;" parent="1" vertex="1">
          <mxGeometry x="524" y="90" width="60" height="30" as="geometry" />
        </mxCell>
        <mxCell id="reVkv1FL6ccnBDt89wNR-25" value="Test Client" style="text;html=1;strokeColor=none;fillColor=none;align=center;verticalAlign=middle;whiteSpace=wrap;rounded=0;" parent="1" vertex="1">
          <mxGeometry x="328.4" y="500" width="60" height="30" as="geometry" />
        </mxCell>
        <mxCell id="reVkv1FL6ccnBDt89wNR-26" value="Win 2019 Server&lt;br&gt;" style="text;html=1;strokeColor=none;fillColor=none;align=center;verticalAlign=middle;whiteSpace=wrap;rounded=0;" parent="1" vertex="1">
          <mxGeometry x="418" y="270" width="60" height="30" as="geometry" />
        </mxCell>
        <mxCell id="reVkv1FL6ccnBDt89wNR-27" value="Rocky Linux Server" style="text;html=1;strokeColor=none;fillColor=none;align=center;verticalAlign=middle;whiteSpace=wrap;rounded=0;" parent="1" vertex="1">
          <mxGeometry x="210" y="270" width="90.8" height="30" as="geometry" />
        </mxCell>
        <mxCell id="reVkv1FL6ccnBDt89wNR-31" value="" style="edgeStyle=orthogonalEdgeStyle;rounded=0;orthogonalLoop=1;jettySize=auto;html=1;entryX=0;entryY=0.5;entryDx=0;entryDy=0;" parent="1" source="reVkv1FL6ccnBDt89wNR-16" target="reVkv1FL6ccnBDt89wNR-30" edge="1">
          <mxGeometry relative="1" as="geometry">
            <mxPoint x="381" y="59" as="sourcePoint" />
            <mxPoint x="520" y="59" as="targetPoint" />
          </mxGeometry>
        </mxCell>
        <mxCell id="reVkv1FL6ccnBDt89wNR-30" value="" style="image;aspect=fixed;perimeter=ellipsePerimeter;html=1;align=center;shadow=0;dashed=0;spacingTop=3;image=img/lib/active_directory/switch.svg;" parent="1" vertex="1">
          <mxGeometry x="430" y="39" width="40" height="40" as="geometry" />
        </mxCell>
        <mxCell id="reVkv1FL6ccnBDt89wNR-29" value="Int-Switch" style="text;html=1;strokeColor=none;fillColor=none;align=center;verticalAlign=middle;whiteSpace=wrap;rounded=0;" parent="1" vertex="1">
          <mxGeometry x="313" y="170" width="90.8" height="30" as="geometry" />
        </mxCell>
        <mxCell id="reVkv1FL6ccnBDt89wNR-34" value="Ext-Switch" style="text;html=1;strokeColor=none;fillColor=none;align=center;verticalAlign=middle;whiteSpace=wrap;rounded=0;" parent="1" vertex="1">
          <mxGeometry x="404.6" y="70" width="90.8" height="30" as="geometry" />
        </mxCell>
        <mxCell id="reVkv1FL6ccnBDt89wNR-35" value="Pfsense" style="text;html=1;strokeColor=none;fillColor=none;align=center;verticalAlign=middle;whiteSpace=wrap;rounded=0;" parent="1" vertex="1">
          <mxGeometry x="328.4" y="10" width="60" height="30" as="geometry" />
        </mxCell>
        <mxCell id="Ll_PNYcY4uXLcm_41nou-3" value="192.168.1.1" style="text;html=1;strokeColor=none;fillColor=none;align=center;verticalAlign=middle;whiteSpace=wrap;rounded=0;" parent="1" vertex="1">
          <mxGeometry x="326.2" y="90" width="60" height="30" as="geometry" />
        </mxCell>
        <mxCell id="Ll_PNYcY4uXLcm_41nou-4" value="DHCP" style="text;html=1;strokeColor=none;fillColor=none;align=center;verticalAlign=middle;whiteSpace=wrap;rounded=0;" parent="1" vertex="1">
          <mxGeometry x="370" y="39" width="60" height="30" as="geometry" />
        </mxCell>
        <mxCell id="Ll_PNYcY4uXLcm_41nou-6" value="DHCP" style="text;html=1;strokeColor=none;fillColor=none;align=center;verticalAlign=middle;whiteSpace=wrap;rounded=0;" parent="1" vertex="1">
          <mxGeometry x="345.2" y="600" width="40" height="18.2" as="geometry" />
        </mxCell>
        <mxCell id="sTwo0fonugl9qo6DhqGD-10" style="edgeStyle=orthogonalEdgeStyle;rounded=0;orthogonalLoop=1;jettySize=auto;html=1;entryX=1.06;entryY=0.586;entryDx=0;entryDy=0;entryPerimeter=0;" edge="1" parent="1" source="sTwo0fonugl9qo6DhqGD-1" target="reVkv1FL6ccnBDt89wNR-1">
          <mxGeometry relative="1" as="geometry">
            <Array as="points">
              <mxPoint x="600" y="559" />
            </Array>
          </mxGeometry>
        </mxCell>
        <mxCell id="sTwo0fonugl9qo6DhqGD-1" value="" style="image;aspect=fixed;perimeter=ellipsePerimeter;html=1;align=center;shadow=0;dashed=0;spacingTop=3;image=img/lib/active_directory/sql_server.svg;" vertex="1" parent="1">
          <mxGeometry x="588.25" y="300" width="46.2" height="60" as="geometry" />
        </mxCell>
      </root>
    </mxGraphModel>
  </diagram>
</mxfile>
